<svg version="1.1" id="Layer_1" xmlns="http://www.w3.org/2000/svg" xmlns:xlink="http://www.w3.org/1999/xlink" x="0px" y="0px"
	 width="100%" viewBox="0 0 459 429" enable-background="new 0 0 459 429" xml:space="preserve">
<path fill="#000000" opacity="1.000000" stroke="none" 
	d="
M319.000000,430.000000 
	C212.696442,430.000000 106.892883,430.000000 1.044662,430.000000 
	C1.044662,287.070007 1.044662,144.140015 1.044662,1.105008 
	C153.886887,1.105008 306.773865,1.105008 459.830444,1.105008 
	C459.830444,143.999832 459.830444,286.999908 459.830444,430.000000 
	C413.139984,430.000000 366.320007,430.000000 319.000000,430.000000 
M286.915253,361.612732 
	C287.741028,362.863708 288.773499,364.025879 289.356049,365.381378 
	C291.647858,370.713806 295.591766,371.925018 301.235779,371.849426 
	C325.730560,371.521301 350.232269,371.708649 374.731445,371.708649 
	C376.490479,371.708649 378.249481,371.708649 381.081146,371.708649 
	C379.502533,369.338593 378.547974,367.859558 377.548523,366.411530 
	C344.892090,319.098083 312.280090,271.753693 279.475098,224.543427 
	C276.951355,220.911407 276.936005,218.628738 279.513824,215.069687 
	C311.667206,170.677246 343.653015,126.163452 375.672638,81.674156 
	C376.779480,80.136223 377.789612,78.528679 379.020111,76.691971 
	C377.840149,76.447884 377.376221,76.268280 376.912201,76.267899 
	C350.913208,76.246597 324.913452,76.159637 298.916687,76.396255 
	C296.984589,76.413841 294.463501,78.340172 293.244171,80.093857 
	C273.947754,107.846779 254.821320,135.717880 235.648773,163.556961 
	C234.573547,165.118240 233.436325,166.636841 232.047607,168.564423 
	C230.549896,166.424606 229.485565,164.960449 228.479034,163.457596 
	C209.933945,135.767670 191.351334,108.102600 172.921082,80.336403 
	C170.961502,77.384201 168.950317,76.119118 165.308456,76.142570 
	C139.643723,76.307899 113.977409,76.225853 88.311615,76.241325 
	C86.770760,76.242256 85.230003,76.402611 82.986931,76.528061 
	C84.494148,78.742439 85.494843,80.251587 86.534042,81.733734 
	C118.571213,127.426956 150.582581,173.138367 182.718689,218.761917 
	C184.872223,221.819305 184.928299,223.847351 182.722198,226.956482 
	C152.175278,270.007538 121.775818,313.163239 91.346703,356.297882 
	C87.945343,361.119415 84.583443,365.968811 80.890373,371.252960 
	C82.304649,371.488739 82.922699,371.681488 83.540894,371.681946 
	C109.373329,371.700714 135.206558,371.784760 161.036575,371.536957 
	C162.940521,371.518677 165.423233,369.500549 166.623245,367.726501 
	C186.504807,338.334869 206.221512,308.831757 225.986298,279.361084 
	C227.035400,277.796844 228.183746,276.299164 229.599045,274.336151 
	C248.868561,303.673340 267.696167,332.337799 286.915253,361.612732 
z"/>
<path fill="#F50000" opacity="1.000000" stroke="none" 
	d="
M286.719543,361.307495 
	C267.696167,332.337799 248.868561,303.673340 229.599045,274.336151 
	C228.183746,276.299164 227.035400,277.796844 225.986298,279.361084 
	C206.221512,308.831757 186.504807,338.334869 166.623245,367.726501 
	C165.423233,369.500549 162.940521,371.518677 161.036575,371.536957 
	C135.206558,371.784760 109.373329,371.700714 83.540894,371.681946 
	C82.922699,371.681488 82.304649,371.488739 80.890373,371.252960 
	C84.583443,365.968811 87.945343,361.119415 91.346703,356.297882 
	C121.775818,313.163239 152.175278,270.007538 182.722198,226.956482 
	C184.928299,223.847351 184.872223,221.819305 182.718689,218.761917 
	C150.582581,173.138367 118.571213,127.426956 86.534042,81.733734 
	C85.494843,80.251587 84.494148,78.742439 82.986931,76.528061 
	C85.230003,76.402611 86.770760,76.242256 88.311615,76.241325 
	C113.977409,76.225853 139.643723,76.307899 165.308456,76.142570 
	C168.950317,76.119118 170.961502,77.384201 172.921082,80.336403 
	C191.351334,108.102600 209.933945,135.767670 228.479034,163.457596 
	C229.485565,164.960449 230.549896,166.424606 232.047607,168.564423 
	C233.436325,166.636841 234.573547,165.118240 235.648773,163.556961 
	C254.821320,135.717880 273.947754,107.846779 293.244171,80.093857 
	C294.463501,78.340172 296.984589,76.413841 298.916687,76.396255 
	C324.913452,76.159637 350.913208,76.246597 376.912201,76.267899 
	C377.376221,76.268280 377.840149,76.447884 379.020111,76.691971 
	C377.789612,78.528679 376.779480,80.136223 375.672638,81.674156 
	C343.653015,126.163452 311.667206,170.677246 279.513824,215.069687 
	C276.936005,218.628738 276.951355,220.911407 279.475098,224.543427 
	C312.280090,271.753693 344.892090,319.098083 377.548523,366.411530 
	C378.547974,367.859558 379.502533,369.338593 381.081146,371.708649 
	C378.249481,371.708649 376.490479,371.708649 374.731445,371.708649 
	C350.232269,371.708649 325.730560,371.521301 301.235779,371.849426 
	C295.591766,371.925018 291.647858,370.713806 289.356049,365.381378 
	C288.773499,364.025879 287.741028,362.863708 286.719543,361.307495 
z"/>
</svg>